<svg width="20" height="20" viewBox="0 0 20 20" fill="none" xmlns="http://www.w3.org/2000/svg">
<path d="M16.25 1.25C15.5596 0.559643 14.4404 0.559644 13.75 1.25C13.0596 1.94036 13.0596 3.05964 13.75 3.75L16.25 6.25C16.9404 6.94036 18.0596 6.94036 18.75 6.25C19.4404 5.55964 19.4404 4.44036 18.75 3.75L16.25 1.25ZM11.4142 6.41421C10.6332 5.63316 9.36683 5.63316 8.58579 6.41421L0.585786 14.4142C0.210713 14.7893 0 15.298 0 15.8284V18C0 19.1046 0.895431 20 2 20H4.17157C4.70201 20 5.21071 19.7893 5.58579 19.4142L13.5858 11.4142C14.3668 10.6332 14.3668 9.36683 13.5858 8.58579L11.4142 6.41421Z" fill="white" fill-opacity="0.5"/>
</svg>
