<svg width="30" height="30" viewBox="0 0 30 30" fill="none" xmlns="http://www.w3.org/2000/svg">
<path d="M25.125 11.5263C22.8625 11.5263 21.9375 9.92626 23.0625 7.96376C23.7125 6.82626 23.325 5.37626 22.1875 4.72626L20.025 3.48876C19.0375 2.90126 17.7625 3.25126 17.175 4.23876L17.0375 4.47626C15.9125 6.43876 14.0625 6.43876 12.925 4.47626L12.7875 4.23876C12.6528 4.00249 12.4724 3.79537 12.2568 3.62947C12.0413 3.46356 11.7949 3.34218 11.532 3.27239C11.2691 3.2026 10.995 3.18578 10.7255 3.22293C10.4561 3.26008 10.1967 3.35044 9.9625 3.48876L7.8 4.72626C6.6625 5.37626 6.275 6.83876 6.925 7.97626C8.0625 9.92626 7.1375 11.5263 4.875 11.5263C3.575 11.5263 2.5 12.5888 2.5 13.9013V16.1013C2.5 17.4013 3.5625 18.4763 4.875 18.4763C7.1375 18.4763 8.0625 20.0763 6.925 22.0388C6.275 23.1763 6.6625 24.6263 7.8 25.2763L9.9625 26.5138C10.95 27.1013 12.225 26.7513 12.8125 25.7638L12.95 25.5263C14.075 23.5638 15.925 23.5638 17.0625 25.5263L17.2 25.7638C17.7875 26.7513 19.0625 27.1013 20.05 26.5138L22.2125 25.2763C23.35 24.6263 23.7375 23.1638 23.0875 22.0388C21.95 20.0763 22.875 18.4763 25.1375 18.4763C26.4375 18.4763 27.5125 17.4138 27.5125 16.1013V13.9013C27.5059 13.2712 27.2519 12.6691 26.8052 12.2247C26.3585 11.7804 25.755 11.5295 25.125 11.5263ZM15 19.0638C12.7625 19.0638 10.9375 17.2388 10.9375 15.0013C10.9375 12.7638 12.7625 10.9388 15 10.9388C17.2375 10.9388 19.0625 12.7638 19.0625 15.0013C19.0625 17.2388 17.2375 19.0638 15 19.0638Z" fill="#EEEEEE"/>
</svg>
