<svg width="20" height="20" viewBox="0 0 20 20" fill="none" xmlns="http://www.w3.org/2000/svg">
<path d="M1 0C0.447715 0 0 0.447715 0 1V19C0 19.5523 0.447715 20 1 20H19C19.5523 20 20 19.5523 20 19V1C20 0.447715 19.5523 0 19 0H1ZM2.5 3.5C2.5 2.94772 2.94772 2.5 3.5 2.5H16.5C17.0523 2.5 17.5 2.94772 17.5 3.5V7.58579C17.5 8.47669 16.4229 8.92286 15.7929 8.29289L15.7071 8.20711C15.3166 7.81658 14.6834 7.81658 14.2929 8.20711L13.2071 9.29289C12.8166 9.68342 12.8166 10.3166 13.2071 10.7071L17.2071 14.7071C17.3946 14.8946 17.5 15.149 17.5 15.4142V16.5C17.5 17.0523 17.0523 17.5 16.5 17.5H15.4142C15.149 17.5 14.8946 17.3946 14.7071 17.2071L5.70711 8.20711C5.31658 7.81658 4.68342 7.81658 4.29289 8.20711L4.20711 8.29289C3.57714 8.92286 2.5 8.47669 2.5 7.58579V3.5Z" fill="white" fill-opacity="0.5"/>
</svg>
